<svg width="150" height="250" viewBox="0 0 150 250" fill="none" xmlns="http://www.w3.org/2000/svg">
<path d="M60.1788 197.96C59.9012 197.96 59.8087 197.749 59.8087 197.539C65.0824 161.131 69.4309 124.197 73.6869 88.5264C76.2775 66.6398 78.9606 43.9113 81.8288 21.3933C81.8288 21.1829 82.0138 21.0776 82.1989 21.0776C82.3839 21.0776 82.4764 21.2881 82.4764 21.4985C79.6083 44.0165 76.9252 66.6398 74.3346 88.5264C70.0786 124.197 65.7301 161.131 60.4564 197.539C60.4564 197.749 60.3638 197.96 60.1788 197.96Z" fill="#212121"/>
<path d="M104.682 209.323C104.497 209.323 104.312 209.218 104.312 209.008C101.073 177.019 97.5575 144.715 93.7642 113.148C92.2838 100.942 90.5259 88.8414 88.768 77.1615C86.0849 59.2733 83.3093 40.7539 81.8289 21.603C81.8289 21.3926 81.9214 21.1821 82.1065 21.1821C82.2915 21.1821 82.4766 21.2874 82.4766 21.4978C83.9569 40.6486 86.7325 59.1681 89.4157 76.951C91.1736 88.6309 93.024 100.732 94.4118 113.043C98.1127 144.715 101.721 176.914 104.959 208.902C105.052 209.113 104.867 209.323 104.682 209.323Z" fill="#212121"/>
<path d="M103.016 241.208C98.7604 246.785 91.3587 248.994 80.4412 248.994C69.5236 248.994 59.6238 244.259 57.8659 241.208C47.7811 221.425 50.4642 207.115 57.8659 193.751H103.016C110.788 211.113 112.546 223.951 103.016 241.208Z" fill="#7C7671"/>
<g opacity="0.47">
<path opacity="0.47" d="M97.9277 245.627C97.1875 245.627 95.4296 247.1 94.5969 247.31C93.3016 247.731 91.9138 248.152 90.6185 248.362C87.2877 248.994 83.8644 249.204 80.5336 249.204C69.6161 249.204 59.7163 244.469 57.9584 241.418C47.8736 221.635 50.5567 207.325 57.9584 193.961C67.7657 193.961 77.573 193.961 87.3802 193.961C92.5614 193.961 97.9277 194.172 103.109 193.961C103.942 195.54 104.219 197.96 103.386 199.538C102.739 200.801 101.629 201.643 100.611 202.485C93.3941 207.641 84.6971 209.009 76.1851 210.271C85.5298 211.323 94.967 210.482 104.034 207.746C105.329 207.325 106.717 206.904 107.457 205.641C106.162 207.535 109.4 209.535 106.255 211.218C102.831 213.112 98.9454 213.954 95.2446 214.691C86.1775 216.479 76.8328 216.69 67.6732 216.9C68.2283 216.9 70.0787 224.687 70.5413 225.844C71.8366 229.001 73.502 232.053 75.2599 234.788C80.7187 243.627 88.8606 245.416 97.9277 245.627Z" fill="#7C7671"/>
</g>
<g opacity="0.69">
<path opacity="0.69" d="M103.109 241.207C101.814 243.312 100.241 244.995 98.4828 244.575C101.351 242.154 103.201 238.366 102.924 234.157C102.646 230.159 100.333 226.266 97.095 224.582C99.0379 228.16 100.981 231.737 102.924 235.315C97.28 230.79 93.1165 224.056 91.3586 216.48C92.0988 222.162 92.3764 227.949 91.2661 233.526C90.1558 239.103 87.4727 244.469 83.2167 247.521C89.1381 236.893 89.2306 222.898 84.8821 211.324C83.4018 207.43 81.4588 203.642 81.0888 199.433C77.1103 202.695 74.4272 207.536 72.5768 212.692C70.8189 217.848 69.8937 223.319 69.1535 228.791C68.7834 224.371 68.4133 220.057 68.1358 215.638C65.7302 221.741 61.3817 226.897 56.0154 229.738C62.5845 222.267 64.5274 210.903 70.0787 202.485C65.4526 208.693 58.5135 214.796 51.4819 216.795C51.5744 212.692 51.852 208.904 53.0548 204.8C53.5174 203.327 56.4781 193.646 57.8659 193.646H103.016C106.902 202.274 110.14 211.639 109.4 221.53C109.215 223.845 108.845 226.055 108.29 228.265C108.012 229.317 106.44 232.053 106.532 233C106.07 228.686 105.699 224.477 105.237 220.163C104.959 217.848 104.774 215.427 103.756 213.323C102.369 210.482 99.7781 208.693 97.28 207.009C98.9454 210.377 101.166 213.533 103.664 216.164C100.333 214.059 97.5576 211.008 95.5221 207.325C96.9099 210.903 98.5753 214.375 100.426 217.637C101.999 220.478 103.756 223.109 104.774 226.16C106.532 231.422 105.792 236.788 103.109 241.207Z" fill="#7C7671"/>
</g>
<path d="M80.4412 199.223C92.9091 199.223 103.016 196.773 103.016 193.751C103.016 190.729 92.9091 188.279 80.4412 188.279C67.9732 188.279 57.866 190.729 57.866 193.751C57.866 196.773 67.9732 199.223 80.4412 199.223Z" fill="#474340"/>
<path d="M80.4413 199.749C69.2462 199.749 57.4034 197.644 57.4034 193.751C57.4034 189.858 69.2462 187.753 80.4413 187.753C91.6363 187.753 103.479 189.858 103.479 193.751C103.479 197.644 91.6363 199.749 80.4413 199.749ZM80.4413 188.806C67.3958 188.806 58.3287 191.436 58.3287 193.751C58.3287 196.066 67.3958 198.697 80.4413 198.697C93.4868 198.697 102.554 196.066 102.554 193.751C102.554 191.436 93.4868 188.806 80.4413 188.806Z" fill="#7C7671"/>
<path d="M85.3448 210.167C80.9963 210.167 76.7403 209.851 72.6694 209.641C68.691 209.325 64.9901 208.799 61.5668 208.062C61.1042 207.957 60.5491 207.852 59.994 207.747C57.2183 207.22 54.1651 206.694 52.2222 204.169C52.1297 203.959 52.1297 203.748 52.2222 203.643C52.4072 203.538 52.5923 203.538 52.6848 203.643C54.4427 205.958 57.4034 206.484 60.0865 207.01C60.6416 207.115 61.1968 207.221 61.6594 207.326C65.0827 208.062 68.691 208.588 72.6694 208.904C78.9609 209.43 85.7149 209.746 92.3765 209.22C95.3371 209.009 98.2978 208.694 101.166 208.062L101.906 207.852C104.497 207.221 107.457 206.589 109.585 204.695C109.77 204.59 109.956 204.59 110.048 204.8C110.141 205.011 110.141 205.221 109.956 205.326C107.735 207.326 104.682 208.062 101.999 208.588L101.259 208.799C98.2978 209.535 95.3371 209.746 92.469 209.956C90.0634 210.062 87.7504 210.167 85.3448 210.167Z" fill="#EFE8CA"/>
<path d="M109.03 206.694C108.845 206.694 108.753 206.589 108.66 206.378C103.942 168.392 98.1127 129.775 92.3763 92.5254C88.9531 69.9022 85.3447 46.5424 82.1065 23.7087C80.8112 30.864 79.4234 37.914 78.1281 44.964C71.0039 82.8448 64.2498 118.621 59.2537 159.553C58.421 166.182 57.2182 172.601 56.108 178.809C54.6276 186.806 53.0548 195.119 52.3146 203.958C52.3146 204.168 52.1296 204.379 51.9445 204.274C51.7595 204.274 51.5744 204.063 51.6669 203.853C52.4071 194.909 53.98 186.596 55.4603 178.599C56.5706 172.391 57.7734 165.972 58.606 159.343C63.6022 118.411 70.3563 82.6343 77.4804 44.6484C78.9607 36.967 80.4411 29.1804 81.8289 21.2886L82.199 19.1841L82.4766 21.2886C85.8999 44.964 89.5082 69.0604 93.1165 92.315C98.8528 129.564 104.682 168.182 109.4 206.168C109.4 206.378 109.308 206.589 109.03 206.694C109.123 206.694 109.03 206.694 109.03 206.694Z" fill="#212121"/>
<path d="M82.3842 26.0238C82.1991 26.0238 82.0141 25.9185 82.0141 25.7081C81.7365 22.4461 81.5515 19.3946 81.644 16.1327C81.7365 14.4491 81.829 12.8707 82.5692 11.5028C82.8468 10.9767 83.2168 10.5558 83.5869 10.1349C83.8645 9.81921 84.0495 9.50354 84.3271 9.18787C85.7149 7.08338 85.4374 4.03188 83.6795 2.55874C81.829 0.875147 79.516 1.0856 78.0357 2.97963C77.1104 4.1371 76.7404 5.92591 77.1104 7.39906C77.2955 8.13563 77.8506 9.18787 79.2384 9.50354C79.4235 9.50354 79.516 9.71399 79.516 9.92444C79.516 10.1349 79.3309 10.2401 79.1459 10.2401C77.8506 9.92444 76.8329 8.97742 76.4628 7.6095C76.0002 5.92591 76.3703 3.82143 77.4805 2.45351C79.2384 0.243801 82.0141 0.033352 84.1421 1.92739C86.1775 3.7162 86.4551 7.29383 84.8822 9.71399C84.6047 10.0297 84.4196 10.4506 84.1421 10.7662C83.772 11.1871 83.4944 11.608 83.2169 12.0289C82.5692 13.2916 82.4767 14.7648 82.3842 16.2379C82.2916 19.3946 82.3842 22.4461 82.7542 25.7081C82.7542 25.8133 82.6617 26.0238 82.3842 26.0238C82.4767 26.0238 82.4767 26.0238 82.3842 26.0238Z" fill="#212121"/>
<path d="M80.9963 21.3942C80.6262 21.3942 80.4411 20.7629 80.7187 20.4472C80.9962 20.1315 81.4589 20.0263 81.829 19.9211C81.9215 19.9211 82.199 20.0263 82.014 20.1315C82.6616 19.0793 83.9569 20.6577 83.4018 21.6047C83.3093 21.7099 83.2168 21.8151 83.2168 21.9204C83.2168 22.0256 83.4018 22.1308 83.4943 22.236C83.9569 22.5517 84.142 23.2883 83.9569 23.8144C83.8644 24.3405 83.4943 24.8666 83.1242 25.3928C83.6794 25.3928 83.9569 26.0241 83.8644 26.5502C83.7719 27.0764 83.2168 27.392 82.7542 27.4973C82.2916 27.6025 81.7364 27.4973 81.1813 27.392C80.7187 27.2868 80.2561 27.1816 80.071 26.7607C79.7935 26.1293 80.4411 25.498 80.9963 25.0771C80.5336 24.9719 80.1636 24.551 80.1636 24.1301C80.1636 23.7092 80.5336 23.2883 80.9963 23.1831C80.7187 23.0778 79.7935 21.3942 80.9963 21.3942Z" fill="#BF7949"/>
<path d="M82.2916 28.0229C81.9215 28.0229 81.5514 27.9177 81.1813 27.9177C80.6262 27.8125 80.071 27.602 79.7935 27.0759C79.5159 26.5498 79.701 25.9184 80.3486 25.2871C80.0711 25.0766 79.886 24.6557 79.886 24.2348C79.886 23.814 80.1636 23.3931 80.5337 23.0774C80.2561 22.6565 80.071 22.0251 80.2561 21.499C80.2561 21.3938 80.3486 21.2886 80.4411 21.2886C80.2561 20.9729 80.3486 20.4468 80.5337 20.2363C80.8112 19.8154 81.3664 19.7102 81.829 19.605C81.9215 19.605 82.014 19.605 82.1065 19.605C82.2916 19.4998 82.4766 19.3945 82.7542 19.3945C83.2168 19.4998 83.6794 19.9207 83.8644 20.4468C84.0495 20.9729 84.0495 21.3938 83.7719 21.8147C84.4195 22.2356 84.6971 23.0774 84.5121 23.9192C84.4195 24.4453 84.142 24.761 83.9569 25.1819C84.0495 25.2871 84.142 25.3923 84.2345 25.4975C84.4195 25.8132 84.5121 26.2341 84.4195 26.655C84.2345 27.2864 83.6794 27.7073 83.0317 27.9177C82.6616 28.0229 82.4766 28.0229 82.2916 28.0229ZM80.9037 21.8147C80.8112 21.8147 80.7187 21.8147 80.7187 21.8147C80.6262 22.0251 80.9963 22.7617 81.1813 22.9722L81.7364 23.6035L80.9963 23.7087C80.7187 23.7087 80.5337 24.0244 80.4411 24.2348C80.4411 24.4453 80.7187 24.761 80.9037 24.761L81.9215 24.8662L81.0888 25.4975C80.6262 25.8132 80.1636 26.3393 80.3486 26.655C80.4411 26.8655 80.9037 26.9707 81.2738 27.0759C81.829 27.1811 82.2916 27.2864 82.6616 27.1811C83.1242 27.0759 83.4018 26.7602 83.4943 26.4446C83.4943 26.3393 83.4943 26.1289 83.4018 26.0237C83.3093 25.9184 83.2168 25.8132 83.0317 25.8132H82.2916L82.7542 25.1819C83.0317 24.761 83.4018 24.2348 83.4943 23.814C83.5868 23.3931 83.4943 22.8669 83.1242 22.6565C82.9392 22.5513 82.6616 22.3408 82.6616 22.0251C82.6616 21.7095 82.7542 21.499 82.8467 21.3938C83.0317 21.1833 82.9392 20.8677 82.9392 20.7624C82.8467 20.4468 82.5691 20.2363 82.3841 20.2363H82.2916L82.014 20.4468L80.8112 21.2886L80.9037 21.8147ZM80.9963 21.0781L81.4589 20.4468C81.2738 20.552 81.0888 20.552 80.9963 20.7624C80.9037 20.7624 80.8112 20.8677 80.9963 21.0781C80.9037 21.0781 80.9037 21.0781 80.9963 21.0781Z" fill="#BF7949"/>
<path d="M51.2044 190.173C43.8027 192.278 37.5112 197.644 31.9599 203.642C24.7433 211.323 18.3593 219.952 13.0856 229.422C15.3986 222.793 18.5443 216.584 22.4302 211.008C27.9815 202.905 35.1057 195.96 43.4326 191.752C52.0371 187.332 62.8621 185.228 71.4666 191.015C68.0433 188.7 64.1574 187.332 60.179 187.016C50.3717 185.964 40.9345 190.594 32.7926 196.381C24.4657 202.274 17.3416 210.376 11.9753 219.741C17.9892 209.219 25.2984 199.328 34.6431 192.593C40.7495 188.174 47.6886 185.228 54.9053 184.491C58.6061 184.07 62.2144 184.386 65.8228 185.228C69.2461 186.069 70.9114 187.227 73.8721 189.226C67.5807 177.651 57.7734 164.709 45.098 162.71C35.1057 161.131 25.0209 168.497 20.3023 178.704C23.9106 168.707 31.1273 159.237 40.657 158.29C45.7456 157.764 50.7418 159.763 55.1828 162.499C64.0649 167.866 71.6516 176.284 75.5375 186.806C74.3347 177.231 65.5452 167.971 58.7911 163.025C51.5745 157.869 43.155 155.028 34.6431 154.502C43.6176 153.239 52.8698 155.344 60.7341 160.289C68.5984 165.235 75.0749 173.022 78.9608 182.281C75.3525 170.812 69.8012 159.763 60.0865 153.766C50.0016 147.557 37.5112 147.136 26.6862 151.451C15.8612 155.765 6.6091 164.604 0.132599 175.337C1.79798 169.339 5.68388 164.498 10.0324 160.5C19.0995 152.082 30.3871 146.505 42.1373 145.874C53.8875 145.242 65.9153 150.083 74.0572 159.658C68.3208 149.241 57.5884 143.243 46.7634 142.191C36.0309 141.139 25.2059 144.611 15.3986 149.662C22.8003 143.559 31.5899 139.56 40.657 138.403C50.5568 137.14 61.1042 139.35 68.6909 146.61C73.8721 151.661 77.2954 158.816 79.4234 166.287C81.4589 173.758 82.2916 181.545 83.1243 189.331C83.6794 175.863 80.2561 162.394 74.2422 150.714C68.3208 139.034 59.9014 129.143 50.5567 120.936C60.9191 123.25 69.3386 132.51 74.1497 143.243C78.9608 153.976 80.9038 165.972 82.6617 177.862C80.6262 155.66 73.5946 134.089 62.3995 115.674C68.0433 121.777 73.317 128.617 76.9253 136.404C84.2345 152.082 84.6046 170.601 84.8822 188.384C85.0672 176.915 86.455 165.445 90.4335 154.923C94.4119 144.506 101.258 135.141 110.326 130.09C101.536 141.349 93.3941 153.976 90.711 168.707C93.9493 156.712 101.443 146.189 111.066 139.981C120.688 133.773 132.438 131.879 143.171 134.825C131.976 135.141 120.688 137.666 110.788 143.664C100.888 149.662 92.4689 159.342 88.6756 171.338C97.6501 156.922 113.009 148.083 128.552 148.189C119.578 151.24 110.418 154.397 102.369 159.974C94.3194 165.551 87.3803 173.863 84.7897 184.175C90.9886 170.917 103.664 161.868 116.802 161.342C106.902 164.814 98.0202 171.654 91.4512 180.703C95.152 176.389 99.3155 172.39 104.312 170.181C109.308 167.971 115.137 167.866 119.67 170.917C127.905 176.494 129.755 190.384 138.36 195.329C133.271 191.541 129.2 186.385 124.481 182.071C119.855 177.651 114.304 173.969 108.29 173.758C101.999 173.548 95.8922 177.546 92.2839 183.439C90.8961 185.648 90.1559 188.279 89.6933 190.91C89.4157 192.278 89.3232 193.646 89.0456 195.013C88.9531 195.75 88.9531 197.644 88.398 198.17C88.1204 198.486 87.6578 198.591 87.1952 198.696C85.9924 198.907 84.7897 199.012 83.5869 199.012C81.4589 199.012 79.3309 198.907 77.2029 198.591C76.3702 198.486 75.5375 198.381 74.7973 198.17C74.4273 198.065 73.9647 198.065 73.6871 197.749C73.0394 197.328 72.6694 195.855 72.0217 195.224C71.2815 194.382 70.4488 193.54 69.5236 192.909C67.7657 191.541 65.8228 190.594 63.7873 190.068C59.6238 188.805 55.2753 189.016 51.2044 190.173Z" fill="#4F7F36"/>
<path d="M56.5706 176.599C50.0941 174.285 43.0625 175.126 38.714 181.966C36.9561 184.807 35.9383 188.174 35.2907 191.541C33.8103 199.117 33.9954 207.115 35.7533 214.585C32.515 208.903 31.0347 201.959 31.6823 195.224C32.1449 190.7 33.6253 185.754 36.0309 182.176C37.9738 179.335 42.4148 174.6 45.5605 173.864C41.3971 174.811 37.4187 177.336 34.5505 180.914C31.4048 184.912 30.202 189.542 29.2768 194.698C28.4441 199.538 26.7787 207.325 28.9067 212.06C24.8358 203.116 25.8535 191.436 31.4973 183.65C27.7039 187.753 25.1133 193.33 24.2806 199.117C22.8928 193.541 25.1133 187.543 28.4441 183.123C35.1056 174.39 48.7063 169.865 58.1435 174.6C62.677 176.915 66.6554 180.493 69.8012 184.807C71.374 187.017 72.6693 189.332 73.7796 191.857C74.4272 193.33 75.7225 197.96 77.2954 198.381C74.4272 197.434 73.4095 193.961 72.0217 191.331C70.4488 188.385 68.6909 185.544 66.5629 183.123C63.8798 180.388 60.2714 177.967 56.5706 176.599Z" fill="#4F7F36"/>
<path d="M92.6539 173.127C91.081 177.441 89.6007 181.86 88.3054 186.385C88.0278 187.437 85.4372 198.802 85.3447 198.802C84.0494 198.802 82.7541 198.802 81.3663 198.802C81.7364 193.119 80.256 186.911 78.8682 181.44C76.5552 172.495 73.0394 163.867 68.0432 156.396C60.2714 144.611 49.3539 135.562 37.1411 130.616C44.7278 129.459 52.2221 133.668 57.9584 139.35C71.0039 151.977 78.7757 169.444 82.0139 188.384C81.1813 177.862 79.7934 166.392 77.2028 156.186C73.502 141.244 65.5451 128.196 57.0332 116.095C63.5097 119.462 68.5984 125.565 72.1142 132.615C75.7225 139.56 77.8505 147.452 79.4233 155.239C81.7364 166.077 83.1242 177.231 83.6793 188.384C83.1242 174.074 82.5691 159.869 82.1065 145.558C81.7364 136.614 81.4588 127.67 81.8289 118.726C83.5868 135.246 84.4195 151.871 84.512 168.497C84.512 171.338 84.512 174.284 85.2522 177.02C84.512 161.131 88.3054 145.032 95.7996 131.668C91.7287 149.767 87.6578 167.866 85.9924 186.49C87.1951 161.868 100.611 138.508 120.04 127.459C104.127 143.98 91.5436 161.763 86.3624 185.964C88.6755 175.021 92.0988 163.657 99.2229 155.449C106.069 147.452 115.969 141.875 125.499 139.665C123.001 140.192 120.133 142.717 117.82 144.085C115.044 145.768 112.268 147.663 109.678 149.662C105.977 152.398 102.184 154.923 99.1304 158.711C96.0772 162.499 94.3193 168.181 92.5614 172.916C92.7464 173.022 92.7464 173.022 92.6539 173.127Z" fill="#78AD5C"/>
<path d="M64.0648 195.961C61.8443 199.749 60.179 204.379 57.3108 207.01C53.98 210.166 49.1689 211.113 45.0055 209.43C47.9661 210.482 50.6493 212.376 53.795 211.64C60.179 210.166 62.492 204.695 65.7302 198.907C67.3031 196.066 69.3386 193.541 71.6516 191.542C73.2245 190.174 74.8899 189.016 76.8328 188.806C78.7757 188.595 80.9037 189.648 81.6439 191.647C79.0533 190.7 76.2777 192.173 74.2422 194.067C65.5452 202.169 66.1003 217.848 63.1396 229.107C65.1751 221.32 67.3031 213.428 70.8189 206.273C73.317 201.012 79.1458 189.858 85.7149 195.33C84.6046 191.331 82.014 186.596 77.9431 186.386C73.6871 186.07 69.1535 189.542 66.1928 192.804C65.5452 193.646 64.805 194.804 64.0648 195.961Z" fill="#78AD5C"/>
<path d="M78.6832 197.119C81.6439 193.331 84.5121 189.648 88.7681 188.28C93.4867 186.807 98.6678 187.017 103.201 189.016C107.457 190.91 111.713 194.172 115.137 197.75C121.706 204.484 126.332 213.323 129.755 222.583C131.605 227.529 133.548 233.316 137.989 235.315C136.046 235.631 134.196 234.158 132.716 232.579C126.424 226.055 122.446 217.322 117.635 209.43C112.824 201.538 106.44 193.962 98.1127 192.068C100.426 193.12 102.276 195.119 103.849 197.434C110.326 206.799 111.621 220.479 106.995 231.106C105.792 233.842 104.219 236.473 103.386 239.314C102.554 242.26 102.554 245.732 104.219 248.047C101.536 244.785 101.073 240.05 101.629 235.631C102.184 231.317 103.664 227.108 104.404 222.899C105.237 218.374 105.422 213.744 104.959 209.114C104.404 204.064 102.739 198.802 99.223 195.751C96.3548 193.225 92.4689 192.489 88.8606 193.015C85.3448 193.541 81.9215 195.225 78.6832 197.119Z" fill="#4F7F36"/>
<path d="M94.1344 207.641C95.8923 214.691 98.9455 223.214 105.144 226.792C108.66 228.791 112.916 228.475 116.895 227.844C113.286 228.37 110.696 230.054 106.81 229.002C103.387 228.055 100.056 225.74 97.7427 222.793C93.3017 217.006 90.526 208.799 88.3055 201.643C87.8429 200.17 87.1027 196.382 85.1598 196.593C84.6047 196.698 84.0495 197.119 83.6795 197.645C83.5869 197.855 83.1243 199.013 83.0318 199.013C81.5515 198.907 80.0711 198.907 78.4983 198.802C78.4057 198.802 78.3132 198.802 78.2207 198.697C78.0356 198.487 78.0356 197.013 78.0356 196.698C78.0356 195.961 78.2207 195.225 78.4057 194.593C78.8683 193.331 79.6085 192.278 80.5337 191.542C82.5692 189.963 85.1598 190.069 87.1953 191.437C90.6185 193.646 91.7288 198.487 92.7465 202.801C93.3942 204.379 93.7643 205.957 94.1344 207.641Z" fill="#2D5E2D"/>
<path d="M87.1952 212.271C89.3232 218.69 92.0063 225.109 91.9138 231.948C91.8212 237.42 89.8783 242.681 87.6578 247.521C92.0063 244.786 94.3193 238.998 94.5969 233.421C94.8744 227.844 93.4866 222.268 91.8212 217.006C89.4157 209.114 84.9747 198.592 90.0633 190.805C90.1559 190.595 90.3409 190.385 90.3409 190.174C90.3409 190.069 90.2484 189.964 90.2484 189.858C89.6007 188.49 87.8428 188.385 86.7326 189.122C85.6223 189.964 84.9747 191.437 84.6971 192.91C83.1243 199.118 85.2522 206.484 87.1952 212.271Z" fill="#437039"/>
<path d="M95.522 178.599C99.3154 176.284 103.571 175.337 107.55 177.757C111.343 180.072 113.656 184.702 117.08 187.648C120.318 190.489 124.574 191.963 128.645 191.542C124.481 192.804 119.855 192.173 116.154 189.753C112.361 187.333 109.4 183.545 105.699 181.019C102.184 178.599 98.2052 180.283 94.8744 182.598C90.8034 185.333 88.0278 189.963 83.4942 191.857C82.9391 192.068 82.1064 192.068 82.0139 191.437C85.5297 189.648 87.7502 185.754 90.5259 182.703C92.0987 181.23 93.7641 179.757 95.522 178.599Z" fill="#437039"/>
<path d="M51.9446 188.806C51.2044 189.437 50.5568 190.068 49.8166 190.7C44.7279 195.751 44.2653 201.643 42.8775 208.588C44.7279 199.749 50.5568 192.173 57.9585 188.911C61.9369 187.122 66.3779 186.701 70.5414 187.438C76.0001 188.385 79.1459 192.278 83.1243 196.171C83.2168 196.277 83.3093 196.382 83.4019 196.382C83.8645 196.592 84.4196 196.171 84.7897 195.751C87.4728 193.015 91.1737 192.278 94.3194 190.7C96.2623 189.753 103.109 185.965 105.052 187.017C99.6856 184.071 92.654 185.859 88.8606 191.121C89.9709 187.543 92.0989 184.492 94.2269 181.545C97.3726 177.126 100.611 172.706 103.849 168.392C95.8922 173.338 89.6008 181.651 86.4551 191.331C90.8961 177.021 95.0595 162.605 99.1305 148.084C91.7288 160.606 87.1952 175.337 86.085 190.489C87.7504 182.071 89.3232 173.548 88.9531 164.92C88.6756 159.238 87.4728 153.556 87.1027 147.873C86.5476 140.718 87.1952 133.458 88.8606 126.618C84.9747 134.72 85.0672 144.401 85.7149 153.556C86.1775 160.185 86.8251 166.919 86.27 173.653C85.9924 176.705 85.1598 179.651 84.9747 182.703C84.7897 185.965 84.9747 189.437 85.2523 192.699C84.9747 186.912 83.5869 181.23 81.0888 176.179C79.0534 172.075 74.7974 168.918 71.189 166.709C62.307 161.132 51.5745 160.185 41.7672 163.026C50.9269 161.658 60.5491 162.289 68.691 166.919C76.9254 171.654 83.4019 181.124 83.4019 191.542C80.8113 185.544 78.0356 179.125 73.0395 175.653C69.061 172.917 64.1574 172.286 59.6239 173.653C55.1828 174.916 51.2044 178.073 48.1512 182.071C53.9801 177.652 61.4743 175.653 68.2283 177.652C74.9824 179.651 80.9963 185.754 82.7542 193.436C79.2384 187.438 73.2245 183.545 66.9331 183.018C61.1967 182.808 56.2931 185.123 51.9446 188.806Z" fill="#79A836"/>
<path d="M73.4094 182.281C69.7086 183.334 66.5628 186.175 63.8797 189.331C61.1966 192.488 58.6985 195.855 55.7378 198.591C53.9799 200.17 51.9445 201.432 50.3716 203.221C57.0332 200.38 62.2143 194.277 68.2282 190.173C71.1889 188.174 74.5197 186.49 78.0355 186.701C81.4588 186.806 84.8821 189.016 86.0849 192.804C84.8821 185.438 80.3485 180.387 73.4094 182.281Z" fill="#78AD5C"/>
<path d="M96.5398 179.862C101.536 175.968 107.92 177.652 113.009 180.598C116.987 182.808 120.688 185.754 125.036 186.912C129.477 188.174 134.381 187.438 138.452 184.913C135.954 186.07 133.363 187.227 130.588 187.227C125.499 187.227 121.243 183.124 117.265 179.441C111.806 174.39 105.884 170.602 99.3154 175.021C93.8567 178.704 89.1381 185.649 88.3054 193.015C89.2306 184.702 90.5259 175.653 96.4473 169.971C100.426 166.077 105.699 163.973 110.881 163.973C113.564 163.973 116.247 164.604 118.837 164.394C121.798 164.183 124.574 163.026 127.349 161.763C129.57 160.816 131.79 159.869 133.271 157.765C130.125 160.5 125.962 161.342 121.983 161.447C118.005 161.553 114.026 160.921 110.048 161.237C105.422 161.553 100.888 163.131 96.9099 165.656C93.209 167.971 89.8783 171.339 88.1203 175.653C85.6223 181.966 86.8251 190.805 87.2877 197.645C87.1026 195.33 89.2306 190.805 89.9708 188.385C91.1736 185.018 93.9492 181.966 96.5398 179.862Z" fill="#78AD5C"/>
<path d="M47.966 152.293C41.9521 152.608 36.3083 155.555 30.6645 157.764C25.0207 160.079 18.6368 161.658 12.993 159.343C15.306 159.974 17.8041 159.448 20.1171 158.817C29.2767 156.081 37.7887 150.083 47.3184 149.452C52.1295 149.136 56.9406 150.293 61.4741 152.187C71.559 156.396 78.5906 165.025 81.1812 176.915C82.569 183.018 82.8466 189.332 83.1241 195.54C82.8466 189.437 81.1812 183.018 79.6083 177.231C78.128 171.97 76.7402 169.76 73.3169 166.182C66.1927 158.711 58.2359 151.767 47.966 152.293Z" fill="#79A836"/>
<path d="M67.3032 175.127C62.307 173.338 56.8483 174.811 51.5745 174.18C46.1158 173.549 40.7496 170.602 36.9562 166.078C42.785 169.445 49.169 171.444 55.6455 171.97C59.3464 172.286 63.1397 172.075 66.7481 173.128C74.4273 175.337 82.6617 185.228 81.3664 194.804C79.7936 192.384 79.331 188.596 78.0357 185.86C75.9077 181.019 71.9293 176.811 67.3032 175.127Z" fill="#437039"/>
<path d="M133.271 150.504C125.129 147.453 116.34 149.031 108.66 153.135C104.034 155.66 99.6857 159.027 95.7072 162.71C93.7643 164.499 92.1914 166.393 90.7111 168.603C89.4158 170.497 87.1027 173.232 86.5476 175.653C88.6756 166.919 88.1205 157.238 88.8607 148.294C89.5083 140.192 90.8036 131.879 93.5793 124.198C95.0596 120.199 97.0025 114.307 99.5931 110.94C94.2269 117.674 90.341 125.882 88.213 134.615C85.9925 143.77 86.6401 153.135 86.5476 162.605C86.4551 167.761 86.3626 173.864 84.1421 178.494C85.2523 165.025 83.1243 150.294 80.1637 137.246C78.9609 131.879 77.4805 126.618 75.075 121.778C72.6694 116.937 69.3386 112.623 65.0827 109.993C68.5985 114.517 71.9292 119.358 74.2423 124.829C77.4805 132.616 79.2384 141.77 80.6263 150.188C82.1066 159.343 83.0318 168.708 83.2169 177.968C82.1991 171.97 80.5337 165.972 78.0357 160.606C71.3741 146.506 57.9585 138.088 50.0942 124.724C52.1297 128.302 54.1651 131.985 56.5707 135.247C61.4743 141.665 67.8583 146.506 72.4844 153.345C75.5376 157.87 77.7581 163.131 79.6085 168.497C81.644 174.39 82.4767 180.177 82.9393 186.491C84.3271 181.124 87.2878 176.494 90.526 172.18C92.654 169.339 95.1521 167.024 97.5577 164.499C100.056 161.868 102.739 159.553 105.7 157.554C111.713 153.661 118.56 151.556 125.407 151.767C130.495 151.977 135.584 153.45 140.118 156.081C144.559 158.606 146.779 163.552 147.797 168.918C148.537 173.022 148.537 177.231 148.259 181.335C148.814 179.967 148.907 178.494 149 176.915C149.092 173.548 149.185 170.076 148.722 166.709C146.964 157.975 140.395 153.24 133.271 150.504Z" fill="#2D5E2D"/>
<path d="M81.5514 187.227C80.2561 185.438 78.2207 186.385 76.8328 187.543C74.9824 189.226 73.5021 191.541 72.6694 194.067C71.8367 196.592 71.6516 199.328 71.5591 201.958C71.4666 205.957 71.4666 209.956 71.6516 213.849C70.1713 207.641 69.9862 200.275 71.2815 193.961C71.9292 190.594 73.317 187.332 75.5375 185.017C76.9254 183.649 78.6833 182.597 80.4412 182.913C83.0318 183.439 84.5121 186.385 85.4373 188.911C85.7149 185.333 87.1952 181.861 89.5083 179.44C91.5437 177.336 94.782 177.126 96.91 179.23C98.4828 180.808 99.038 183.229 99.6856 185.438C100.888 189.542 102.554 193.646 105.237 196.908C103.664 196.171 101.999 195.329 100.796 193.856C98.4828 190.805 99.038 185.754 96.6324 182.702C95.2446 181.019 92.9316 180.282 90.9886 180.914C88.0279 181.966 87.1027 185.333 86.27 188.385C85.8074 190.068 85.8999 191.857 85.4373 193.646C85.3448 193.961 83.957 198.907 84.142 198.907C83.4944 198.802 82.9393 198.697 82.2916 198.697C83.1243 195.645 82.8467 192.383 82.1991 189.226C82.014 188.49 81.9215 187.858 81.5514 187.227C81.644 187.437 81.5514 187.332 81.5514 187.227Z" fill="#79A836"/>
<path d="M93.3016 189.858C94.5969 193.014 95.2446 196.487 96.4474 199.749C97.6501 203.011 99.6856 206.062 102.646 207.114C99.5006 206.588 97.0025 203.852 95.3371 200.801C93.6717 197.749 92.654 194.277 91.4512 191.015C90.8036 189.332 89.8784 187.332 88.213 187.122C87.9354 187.122 87.6578 187.122 87.3803 187.227C87.1952 187.332 87.1027 187.648 86.9177 187.858C85.9925 189.858 85.4373 192.173 85.3448 194.488C84.5121 191.541 84.2345 182.281 89.0457 183.86C91.0811 184.596 92.469 187.858 93.3016 189.858Z" fill="#78AD5C"/>
<g opacity="0.74">
<g opacity="0.74">
<path opacity="0.74" d="M82.199 128.512C82.7541 132.405 82.9392 136.298 83.1242 140.192C83.3093 144.085 83.4018 147.978 83.1242 151.872C82.5691 147.978 82.384 144.085 82.199 140.192C82.1065 136.404 82.014 132.51 82.199 128.512Z" fill="#212121"/>
</g>
<g opacity="0.74">
<path opacity="0.74" d="M85.8999 144.717C85.5298 143.875 85.5298 143.033 85.5298 142.191C85.6223 141.35 85.7148 140.508 86.0849 139.666C86.455 140.508 86.455 141.35 86.455 142.191C86.3625 143.138 86.27 143.98 85.8999 144.717Z" fill="#212121"/>
</g>
<g opacity="0.74">
<path opacity="0.74" d="M71.5592 129.458C74.0573 132.615 76.0002 136.403 77.388 140.402C78.7759 144.4 79.6085 148.715 79.6085 152.924C78.8684 148.715 77.8506 144.716 76.5553 140.718C75.1675 136.929 73.5021 133.141 71.5592 129.458Z" fill="#212121"/>
</g>
<g opacity="0.74">
<path opacity="0.74" d="M75.0751 160.079C75.6302 160.394 76.0003 160.92 76.2778 161.447C76.5554 161.973 76.7405 162.604 76.7405 163.341C76.1853 163.025 75.8152 162.499 75.5377 161.973C75.2601 161.447 75.0751 160.815 75.0751 160.079Z" fill="#212121"/>
</g>
<g opacity="0.74">
<path opacity="0.74" d="M83.4944 191.435C83.957 192.172 84.1421 193.013 84.1421 193.855C84.1421 194.697 83.8645 195.539 83.4019 196.275C83.2169 195.434 83.2169 194.592 83.2169 193.855C83.3094 193.013 83.3094 192.277 83.4944 191.435Z" fill="#212121"/>
</g>
<g opacity="0.74">
<path opacity="0.74" d="M83.4946 180.177C87.0104 174.81 90.7112 169.654 94.9672 165.025C99.2232 160.395 104.034 156.396 109.493 153.555C114.859 150.819 120.873 149.241 126.795 149.767C128.275 149.872 129.755 150.188 131.143 150.504C132.623 150.925 134.011 151.345 135.399 151.977C136.787 152.608 138.082 153.345 139.377 154.292C140.58 155.239 141.783 156.186 142.893 157.343C141.783 156.291 140.58 155.344 139.285 154.502C137.99 153.66 136.694 153.029 135.307 152.398C133.919 151.872 132.531 151.345 131.143 151.03C129.755 150.714 128.275 150.504 126.795 150.398C120.966 149.978 115.229 151.556 109.956 154.292C104.682 157.028 99.8709 160.921 95.6149 165.445C91.1738 170.075 87.2879 175.126 83.4946 180.177Z" fill="#212121"/>
</g>
<g opacity="0.74">
<path opacity="0.74" d="M86.0851 173.758C86.6402 169.233 86.8253 164.709 87.0103 160.079C87.1028 155.554 87.1953 150.924 87.4729 146.294C87.843 141.77 88.3981 137.14 89.5084 132.72C90.0635 130.511 90.8037 128.301 91.6364 126.302C92.5616 124.197 93.5793 122.198 94.7821 120.409C92.6541 124.302 91.1738 128.511 90.156 132.931C89.1383 137.35 88.6757 141.875 88.3981 146.4C88.028 150.924 87.9355 155.554 87.6579 160.079C87.3804 164.709 87.0103 169.233 86.0851 173.758Z" fill="#212121"/>
</g>
<g opacity="0.74">
<path opacity="0.74" d="M90.7111 161.025C91.0811 158.71 91.7288 156.501 92.469 154.396C93.2091 152.186 94.2269 150.187 95.2446 148.188C96.3549 146.189 97.5576 144.295 98.9455 142.611C99.5931 141.769 100.333 140.927 101.073 140.086C101.814 139.349 102.554 138.507 103.386 137.876C103.016 138.297 102.739 138.718 102.369 139.139L101.351 140.507C100.703 141.348 100.056 142.295 99.4081 143.137C98.2053 144.926 97.0025 146.82 95.9848 148.819C94.8745 150.713 93.9493 152.818 93.0241 154.817C92.1914 156.711 91.4512 158.816 90.7111 161.025Z" fill="#212121"/>
</g>
<g opacity="0.74">
<path opacity="0.74" d="M99.8708 150.398C101.259 146.715 103.294 143.453 105.607 140.507C108.013 137.561 110.788 135.035 113.842 133.247C111.158 135.772 108.66 138.403 106.255 141.244C103.942 144.085 101.814 147.136 99.8708 150.398Z" fill="#212121"/>
</g>
<g opacity="0.74">
<path opacity="0.74" d="M107.273 144.295C109.308 142.401 111.528 140.823 113.842 139.56C116.155 138.192 118.653 137.14 121.151 136.298C123.649 135.457 126.239 134.93 128.83 134.615L130.773 134.51L132.716 134.404L134.659 134.51C135.307 134.615 135.954 134.615 136.602 134.72C135.954 134.72 135.307 134.825 134.659 134.825L132.716 134.93L130.773 135.141L128.83 135.457C126.332 135.877 123.741 136.509 121.336 137.351C118.838 138.192 116.432 139.139 114.119 140.297C111.806 141.454 109.493 142.822 107.273 144.295Z" fill="#212121"/>
</g>
<g opacity="0.74">
<path opacity="0.74" d="M61.0118 119.989C62.5846 121.147 64.065 122.62 65.3603 124.093C66.6556 125.671 67.8584 127.355 68.9686 129.144C71.0966 132.721 72.762 136.615 74.2423 140.613C75.6301 144.612 76.9254 148.61 78.0357 152.714C78.5908 154.819 79.0534 156.818 79.5161 158.922C79.9787 161.027 80.4413 163.131 80.7188 165.236C80.1637 163.131 79.6086 161.132 79.0534 159.133C78.4983 157.133 77.9432 155.029 77.2955 153.03C76.0928 149.031 74.7975 144.927 73.3171 141.034C71.9293 137.036 70.2639 133.248 68.321 129.67C66.378 126.092 63.9725 122.725 61.0118 119.989Z" fill="#212121"/>
</g>
<g opacity="0.74">
<path opacity="0.74" d="M69.8939 116.306C71.4667 117.884 72.8546 119.778 73.9648 121.883C75.0751 123.987 75.9078 126.197 76.6479 128.512C77.3881 130.721 78.0358 133.142 78.5909 135.456C79.146 137.771 79.7011 140.086 80.1637 142.507C81.089 147.242 81.8291 151.977 82.2917 156.817C82.4768 159.237 82.6618 161.657 82.8469 164.078C82.9394 166.498 83.0319 168.918 82.9394 171.338C82.5693 166.498 82.1992 161.763 81.5516 157.027C80.9039 152.292 80.1637 147.557 79.2385 142.927C78.3133 138.298 77.2031 133.562 75.9078 129.038C75.2601 126.723 74.4274 124.513 73.5022 122.409C72.577 119.989 71.3742 117.989 69.8939 116.306Z" fill="#212121"/>
</g>
<g opacity="0.74">
<path opacity="0.74" d="M56.8483 125.355C59.624 126.723 62.122 128.722 64.3425 131.142C66.4705 133.562 68.321 136.404 69.6163 139.455C67.7658 136.719 65.8229 134.194 63.6949 131.879C61.5669 129.459 59.2539 127.354 56.8483 125.355Z" fill="#212121"/>
</g>
<g opacity="0.74">
<path opacity="0.74" d="M45.1906 132.51C47.6887 133.457 50.0942 134.72 52.4073 136.298C54.7203 137.771 56.8483 139.666 58.8838 141.665C60.9192 143.664 62.7697 145.874 64.3425 148.294L65.5453 150.083L66.6556 151.977L67.6733 153.976C67.9509 154.607 68.321 155.344 68.5985 155.975C68.2284 155.344 67.8584 154.713 67.4883 154.081L66.2855 152.292L65.0827 150.504L63.7874 148.82C62.0295 146.61 60.1791 144.401 58.2361 142.507C56.2932 140.507 54.1652 138.718 51.9447 137.035C49.9092 135.246 47.5962 133.773 45.1906 132.51Z" fill="#212121"/>
</g>
<g opacity="0.74">
<path opacity="0.74" d="M25.946 157.975C28.9067 157.659 31.6824 156.291 34.3655 154.923C37.0486 153.555 39.8243 152.187 42.7849 151.556C45.7456 150.925 48.7063 150.82 51.7595 150.714C53.2399 150.714 54.8127 150.714 56.2931 151.03C57.7734 151.346 59.2537 151.977 60.6416 152.608C63.3247 154.082 65.9153 155.765 68.4134 157.764C70.9114 159.764 73.2245 161.973 75.1674 164.499C77.1104 167.129 78.6832 170.076 79.701 173.338C80.7187 176.6 81.2738 179.861 81.7364 183.229C81.0888 179.967 80.3486 176.6 79.2384 173.548C78.1281 170.391 76.6478 167.55 74.6123 165.025C70.6339 160.079 65.5452 156.396 60.2715 153.555C58.9762 152.819 57.5884 152.293 56.2005 151.977C54.8127 151.661 53.3324 151.556 51.852 151.556C48.8913 151.661 45.9307 151.767 43.0625 152.293C40.1943 152.819 37.4187 154.082 34.6431 155.344C31.7749 156.712 28.9993 157.87 25.946 157.975Z" fill="#212121"/>
</g>
<g opacity="0.74">
<path opacity="0.74" d="M73.7796 189.963C74.0572 188.805 74.5198 187.753 75.1674 186.806C75.8151 185.859 76.6478 184.912 77.573 184.386C78.5907 183.86 79.7935 183.649 80.8112 184.07C81.829 184.491 82.7542 185.438 83.0317 186.595C82.4766 185.648 81.5514 185.122 80.6262 184.912C79.701 184.701 78.7758 184.912 77.9431 185.438C77.1104 185.859 76.3702 186.595 75.63 187.437C74.9824 188.174 74.4273 189.121 73.7796 189.963Z" fill="#212121"/>
</g>
<g opacity="0.74">
<path opacity="0.74" d="M86.0851 187.016C86.4552 186.069 87.1028 185.227 88.028 184.912C88.4906 184.701 89.0458 184.806 89.5084 185.017C89.971 185.227 90.3411 185.648 90.6186 186.069C91.2663 186.911 91.6364 187.753 92.099 188.594C92.5616 189.436 92.9317 190.383 93.3018 191.225C94.7821 194.908 95.1522 198.906 96.9101 202.379C95.7073 200.906 94.9671 199.012 94.3195 197.118C93.6718 195.224 93.2092 193.33 92.4691 191.541C92.099 190.699 91.7289 189.752 91.2663 188.91C90.8962 188.068 90.4336 187.121 90.0635 186.385C89.6009 185.648 88.9532 185.122 88.1205 185.227C87.2879 185.543 86.5477 186.28 86.0851 187.016Z" fill="#212121"/>
</g>
<g opacity="0.74">
<path opacity="0.74" d="M90.1559 180.072C90.8035 179.44 91.6362 179.019 92.4689 178.704C93.3016 178.493 94.2268 178.388 95.152 178.809C96.0772 179.125 96.8174 179.756 97.3725 180.703C97.8351 181.545 98.2052 182.387 98.6678 183.334C99.0379 184.175 99.408 185.122 99.6856 186.069C99.9631 187.016 100.148 187.963 100.333 188.91C100.796 190.804 101.258 192.593 102.369 194.066C101.721 193.435 101.166 192.699 100.703 191.857C100.241 191.015 99.9631 190.068 99.6856 189.121C99.1304 187.227 98.6678 185.438 97.8351 183.754C97.4651 182.913 97.095 181.966 96.6324 181.229C96.2623 180.492 95.6146 179.966 94.8745 179.545C93.3941 178.914 91.6362 179.23 90.1559 180.072Z" fill="#212121"/>
</g>
<g opacity="0.74">
<path opacity="0.74" d="M94.6896 188.911C94.8746 188.279 95.3372 187.858 95.7998 187.648C96.2624 187.438 96.8176 187.227 97.3727 187.543C97.0026 188.069 96.6325 188.385 96.1699 188.595C95.7073 188.7 95.3372 188.911 94.6896 188.911Z" fill="#212121"/>
</g>
<g opacity="0.74">
<path opacity="0.74" d="M97.9277 177.23C98.9455 176.494 100.056 175.968 101.166 175.547C102.276 175.126 103.479 174.81 104.682 174.705C105.885 174.6 107.18 174.705 108.29 175.126C109.493 175.547 110.603 176.178 111.621 176.915C113.656 178.388 115.507 179.966 117.45 181.545C118.375 182.386 119.393 183.123 120.318 183.859L123.186 186.174C122.076 185.543 121.058 184.912 120.04 184.28C119.023 183.544 118.005 182.912 116.987 182.176C114.952 180.808 113.009 179.124 111.066 177.756C109.123 176.283 106.902 175.442 104.589 175.547C102.461 175.547 100.148 176.283 97.9277 177.23Z" fill="#212121"/>
</g>
<g opacity="0.74">
<path opacity="0.74" d="M106.995 171.338C108.013 171.023 109.123 170.812 110.233 170.707C111.343 170.707 112.454 170.707 113.564 170.917C115.784 171.338 117.912 172.391 119.763 173.864C121.613 175.337 123.094 177.231 124.574 179.02L126.794 181.756C127.535 182.703 128.275 183.65 128.922 184.597C128.09 183.755 127.257 182.913 126.517 182.071L124.111 179.546C122.538 177.862 121.058 175.968 119.3 174.6C117.542 173.232 115.599 172.18 113.471 171.654C112.454 171.338 111.343 171.233 110.326 171.128C109.123 171.233 108.105 171.233 106.995 171.338Z" fill="#212121"/>
</g>
<g opacity="0.74">
<path opacity="0.74" d="M105.144 179.546C106.81 179.335 108.475 180.177 109.771 181.229C111.158 182.387 112.176 183.755 113.379 185.017C115.692 187.543 118.375 189.542 121.336 191.015C118.097 190.279 115.137 188.385 112.731 185.754C111.528 184.386 110.511 183.018 109.308 181.861C108.198 180.808 106.81 179.756 105.144 179.546Z" fill="#212121"/>
</g>
<g opacity="0.74">
<path opacity="0.74" d="M102.831 191.121C106.347 192.594 109.863 194.277 112.916 197.013C115.969 199.749 118.19 203.327 120.225 206.904C122.168 210.587 124.111 214.165 125.962 217.953L128.737 223.53C129.662 225.424 130.588 227.213 131.42 229.107C130.403 227.318 129.385 225.529 128.275 223.74L125.221 218.374L119.3 207.536C117.357 203.958 115.137 200.486 112.361 197.75C110.973 196.382 109.4 195.224 107.735 194.172C106.255 193.015 104.497 192.068 102.831 191.121Z" fill="#212121"/>
</g>
<g opacity="0.74">
<path opacity="0.74" d="M103.572 199.538C104.867 201.432 105.792 203.642 106.532 205.957C107.272 208.272 107.643 210.692 107.828 213.112C108.013 215.532 107.828 218.058 107.457 220.373L107.087 222.161L106.625 223.95L106.07 225.634C105.885 226.16 105.607 226.686 105.329 227.317C105.515 226.686 105.607 226.16 105.792 225.634L106.162 223.845L106.532 222.056L106.81 220.267C107.087 217.952 107.18 215.532 106.995 213.217C106.902 210.902 106.44 208.482 105.977 206.167C105.237 203.958 104.497 201.643 103.572 199.538Z" fill="#212121"/>
</g>
<g opacity="0.74">
<path opacity="0.74" d="M104.219 230.896C104.312 232.369 104.127 233.631 103.849 234.999C103.572 236.367 103.201 237.63 102.554 238.893C102.461 237.419 102.646 236.157 102.924 234.789C103.201 233.421 103.572 232.053 104.219 230.896Z" fill="#212121"/>
</g>
<g opacity="0.74">
<path opacity="0.74" d="M100.241 224.476C99.8706 224.055 99.5006 223.634 99.1305 223.108L98.1127 221.635L97.1875 220.162L96.2623 218.583C95.0595 216.479 94.1343 214.269 93.3016 211.954C92.4689 209.639 91.7288 207.324 91.1736 204.904C90.8961 203.747 90.6185 202.484 90.3409 201.327C90.0634 200.169 89.8783 198.906 89.6008 197.749C89.9709 198.906 90.3409 200.064 90.711 201.221L91.8213 204.694C92.5614 207.009 93.3016 209.324 94.1343 211.533C94.967 213.743 95.7997 215.953 96.8174 218.163C97.8352 220.372 98.9454 222.477 100.241 224.476Z" fill="#212121"/>
</g>
<g opacity="0.74">
<path opacity="0.74" d="M86.2701 197.223C86.0851 199.222 86.1776 201.222 86.4552 203.221C86.7327 205.22 87.1953 207.114 87.7505 209.008C88.8607 212.796 90.2485 216.479 91.5438 220.267C92.7466 224.055 93.7643 228.054 93.7643 232.158C93.7643 234.157 93.4868 236.261 93.0242 238.155C92.469 240.049 91.6364 241.944 90.4336 243.417C90.9887 242.575 91.3588 241.733 91.7289 240.786C92.099 239.839 92.3765 238.892 92.5616 237.945C93.0242 236.051 93.1167 234.052 93.0242 232.052C92.9317 228.054 91.9139 224.266 90.6186 220.478C89.4159 216.69 88.028 213.007 87.0103 209.114C86.5477 207.114 86.1776 205.22 85.9926 203.116C85.9 201.222 85.9 199.222 86.2701 197.223Z" fill="#212121"/>
</g>
<g opacity="0.74">
<path opacity="0.74" d="M77.9431 193.33C76.9253 194.382 75.9076 195.329 74.9824 196.381C74.0572 197.433 73.132 198.486 72.1143 199.643C72.4843 198.065 73.317 196.802 74.3348 195.645C75.3525 194.592 76.5553 193.75 77.9431 193.33Z" fill="#212121"/>
</g>
<g opacity="0.74">
<path opacity="0.74" d="M69.8012 205.115C69.4311 206.904 68.9685 208.587 68.4134 210.271C67.8583 211.954 67.3031 213.638 66.4705 215.216C66.563 213.322 67.0256 211.639 67.5807 209.85C68.1358 208.166 68.7835 206.588 69.8012 205.115Z" fill="#212121"/>
</g>
<g opacity="0.74">
<path opacity="0.74" d="M51.7595 211.112C53.6099 209.955 55.3679 208.692 57.0332 207.219C58.6061 205.746 60.0864 204.062 61.3817 202.168C62.677 200.379 63.6948 198.275 64.9901 196.275C65.6377 195.328 66.2854 194.381 67.0255 193.434C67.8582 192.593 68.6909 191.856 69.7087 191.435C68.876 192.066 68.0433 192.908 67.3956 193.855C66.748 194.697 66.1003 195.749 65.5452 196.696C64.4349 198.696 63.4172 200.905 62.1219 202.799C60.7341 204.693 59.2537 206.482 57.4958 207.85C55.6454 209.218 53.7025 210.27 51.7595 211.112Z" fill="#212121"/>
</g>
<g opacity="0.74">
<path opacity="0.74" d="M57.5884 198.065C58.8837 196.487 60.179 194.803 61.4743 193.33C62.7696 191.751 64.1574 190.278 65.6378 188.805C68.5984 185.964 72.1143 183.86 75.8151 182.913C72.2993 184.701 69.061 186.911 66.1929 189.647C64.7125 191.015 63.3247 192.488 61.9369 193.961C60.5491 195.329 59.0687 196.697 57.5884 198.065Z" fill="#212121"/>
</g>
<g opacity="0.74">
<path opacity="0.74" d="M47.8737 195.224C49.7241 191.857 52.5923 189.226 55.8305 187.437C59.0687 185.754 62.6771 184.912 66.1929 185.438C62.6771 185.754 59.3463 186.701 56.2931 188.384C53.0549 190.068 50.2792 192.383 47.8737 195.224Z" fill="#212121"/>
</g>
<g opacity="0.74">
<path opacity="0.74" d="M57.5884 175.968C58.236 175.231 59.0687 174.916 59.9014 174.81C60.7341 174.705 61.6593 174.916 62.307 175.442C61.4743 175.652 60.7341 175.758 59.9014 175.863C59.2538 175.968 58.5136 176.073 57.5884 175.968Z" fill="#212121"/>
</g>
<g opacity="0.74">
<path opacity="0.74" d="M47.3186 171.443C48.5214 171.864 49.8166 172.18 51.1119 172.285C52.4072 172.496 53.7025 172.496 54.9053 172.496C57.4959 172.496 60.0865 172.39 62.6771 172.496C65.2677 172.706 67.9508 173.127 70.3564 174.495C71.5592 175.126 72.6694 176.073 73.5946 177.02C74.5199 178.073 75.26 179.335 75.7226 180.703C75.075 179.44 74.2423 178.283 73.3171 177.336C72.3919 176.389 71.2816 175.652 70.0788 175.126C67.7658 173.969 65.2677 173.548 62.6771 173.443C60.0865 173.232 57.5885 173.443 54.9979 173.232C53.7026 173.127 52.4072 173.022 51.1119 172.706C49.7241 172.496 48.5214 172.075 47.3186 171.443Z" fill="#212121"/>
</g>
<g opacity="0.74">
<path opacity="0.74" d="M66.933 164.92C68.876 165.446 70.8189 166.183 72.5768 167.34C74.3347 168.498 76.0001 170.076 76.9253 172.18C75.445 170.602 73.8721 169.339 72.1142 168.287C70.4489 167.13 68.6909 166.183 66.933 164.92Z" fill="#212121"/>
</g>
<g opacity="0.74">
<path opacity="0.74" d="M25.5761 143.664C27.519 142.612 29.647 141.875 31.6825 141.244C33.8105 140.613 35.9385 140.192 38.0665 139.981C40.1945 139.771 42.415 139.666 44.543 139.771C45.6532 139.876 46.6709 139.981 47.7812 140.086C48.8915 140.297 49.9092 140.402 51.0194 140.718C50.4643 140.718 49.9092 140.718 49.4466 140.613H47.8737C46.7635 140.613 45.7457 140.613 44.6355 140.613C42.5075 140.718 40.3795 140.823 38.2515 141.033C36.1235 141.244 33.9955 141.665 31.8675 142.086C29.8321 142.507 27.7041 143.033 25.5761 143.664Z" fill="#212121"/>
</g>
<g opacity="0.74">
<path opacity="0.74" d="M62.6771 151.556C57.9585 149.557 52.9624 148.189 47.9662 147.768C42.9701 147.347 37.8814 147.557 32.9778 148.82C28.0741 149.978 23.263 151.977 18.822 154.713C16.6015 156.081 14.4735 157.659 12.438 159.343C10.4026 161.026 8.4596 162.92 6.70169 164.919C8.36707 162.71 10.2175 160.816 12.1605 158.922C14.1034 157.133 16.2314 155.449 18.4519 153.976C22.8929 151.03 27.704 149.031 32.7002 147.768C37.6963 146.61 42.8775 146.295 47.9662 146.926C53.1474 147.663 58.051 149.136 62.6771 151.556Z" fill="#212121"/>
</g>
<g opacity="0.74">
<path opacity="0.74" d="M29.5544 165.34C32.0524 162.499 35.4757 160.71 38.899 159.868C42.4148 159.132 46.1157 159.342 49.4465 160.815C46.0232 160.079 42.5073 160.079 39.084 160.921C35.7533 161.657 32.515 163.13 29.5544 165.34Z" fill="#212121"/>
</g>
<g opacity="0.74">
<path opacity="0.74" d="M51.3896 157.554C52.9624 157.554 54.4428 158.08 55.9231 158.711C57.3109 159.343 58.6988 160.184 59.9015 161.447C58.4212 160.921 57.0334 160.29 55.553 159.658C54.2577 159.027 52.8699 158.396 51.3896 157.554Z" fill="#212121"/>
</g>
<g opacity="0.74">
<path opacity="0.74" d="M55.553 164.814C57.0334 165.025 58.5137 165.761 59.809 166.498C61.1043 167.34 62.3996 168.287 63.4174 169.55C61.937 168.918 60.6417 168.182 59.3464 167.445C58.0511 166.603 56.7558 165.761 55.553 164.814Z" fill="#212121"/>
</g>
<g opacity="0.74">
<path opacity="0.74" d="M24.6508 192.172C25.4835 188.594 27.2414 185.438 29.4619 182.702C31.6824 180.071 34.458 177.862 37.5112 176.704C34.8281 178.598 32.33 180.808 30.1095 183.438C28.0741 186.069 26.2236 189.015 24.6508 192.172Z" fill="#212121"/>
</g>
<g opacity="0.74">
<path opacity="0.74" d="M27.4266 197.434C27.2415 196.066 27.5191 194.804 27.7967 193.541C28.1667 192.278 28.7219 191.121 29.462 190.174C29.277 191.542 28.9994 192.699 28.6294 193.857C28.3518 195.119 27.9817 196.277 27.4266 197.434Z" fill="#212121"/>
</g>
<g opacity="0.74">
<path opacity="0.74" d="M33.4403 206.903C32.8852 204.694 32.6076 202.379 32.5151 200.064C32.4226 197.749 32.7001 195.434 33.1627 193.224C33.6253 191.015 34.273 188.805 35.1982 186.7L35.9384 185.227L36.771 183.754L37.6963 182.386C37.9738 181.965 38.3439 181.544 38.714 181.124C38.4364 181.65 38.2514 182.071 37.9738 182.597L37.2337 184.07L36.586 185.543L35.9384 187.121C35.1982 189.226 34.5505 191.33 34.0879 193.54C33.6253 195.75 33.3478 197.959 33.2552 200.169C33.1627 202.379 33.2552 204.589 33.4403 206.903Z" fill="#212121"/>
</g>
<g opacity="0.74">
<path opacity="0.74" d="M17.7118 221.109C19.0996 217.531 21.0426 214.164 23.2631 211.113C25.4836 208.061 28.0742 205.325 30.9424 203.01C28.5368 205.851 26.2238 208.692 24.0033 211.744C21.7827 214.795 19.7473 217.847 17.7118 221.109Z" fill="#212121"/>
</g>
<g opacity="0.74">
<path opacity="0.74" d="M37.0486 197.433C37.4186 196.591 37.8812 195.96 38.4364 195.434C38.9915 194.908 39.6392 194.487 40.4718 194.276C40.1018 195.118 39.6392 195.75 39.084 196.276C38.5289 196.802 37.8812 197.223 37.0486 197.433Z" fill="#212121"/>
</g>
<g opacity="0.74">
<path opacity="0.74" d="M37.6964 191.436C39.8244 189.857 42.23 188.7 44.6355 187.753C47.0411 186.911 49.5392 186.28 52.1298 186.069C49.7242 187.016 47.3187 187.858 44.9131 188.7C42.5076 189.647 40.1945 190.594 37.6964 191.436Z" fill="#212121"/>
</g>
<g opacity="0.74">
<path opacity="0.74" d="M88.3056 179.651C89.6009 175.758 91.3588 171.969 94.0419 169.023C95.3372 167.55 96.9101 166.287 98.5755 165.34C100.241 164.393 102.091 163.867 103.849 163.341C105.7 162.92 107.55 162.604 109.4 162.499C111.251 162.499 113.101 162.604 114.952 162.815C118.56 163.131 122.261 163.552 125.777 161.973C124.111 162.92 122.261 163.341 120.411 163.552C118.56 163.762 116.71 163.657 114.859 163.552C113.009 163.446 111.251 163.341 109.4 163.446C107.643 163.552 105.792 163.867 104.034 164.288C102.276 164.709 100.518 165.34 98.853 166.182C97.1877 167.024 95.7073 168.181 94.412 169.549C93.1167 170.917 91.9139 172.496 90.8962 174.284C89.971 175.863 89.1383 177.757 88.3056 179.651Z" fill="#212121"/>
</g>
<g opacity="0.74">
<path opacity="0.74" d="M94.4119 175.021C95.6146 172.706 97.3725 170.707 99.3155 169.129C101.258 167.55 103.479 166.393 105.885 165.867C103.757 167.129 101.814 168.497 99.8706 169.97C98.0202 171.549 96.2623 173.232 94.4119 175.021Z" fill="#212121"/>
</g>
<g opacity="0.74">
<path opacity="0.74" d="M96.2624 176.494C96.4474 175.758 96.8175 175.126 97.2801 174.706C97.7427 174.285 98.3904 173.969 99.038 173.864C98.7605 174.6 98.2979 175.021 97.8353 175.442C97.3726 175.863 96.91 176.284 96.2624 176.494Z" fill="#212121"/>
</g>
<g opacity="0.74">
<path opacity="0.74" d="M85.7149 183.228C85.3448 182.913 85.3448 182.597 85.3448 182.386C85.4373 182.071 85.5298 181.86 85.8999 181.65C86.27 181.966 86.27 182.281 86.27 182.492C86.1775 182.807 86.085 183.018 85.7149 183.228Z" fill="#212121"/>
</g>
<g opacity="0.74">
<path opacity="0.74" d="M92.4691 165.025C92.4691 162.71 93.2093 160.5 94.042 158.501C94.9672 156.501 96.0774 154.607 97.3727 152.924C96.6326 155.028 95.7074 157.028 94.8747 158.922C93.9494 160.921 93.2093 162.92 92.4691 165.025Z" fill="#212121"/>
</g>
<g opacity="0.74">
<path opacity="0.74" d="M97.2802 159.974C98.4829 157.975 99.7782 156.186 101.259 154.607C102.739 152.924 104.312 151.345 105.977 149.978C107.643 148.61 109.4 147.347 111.343 146.295C112.269 145.769 113.194 145.242 114.212 144.822C115.229 144.401 116.155 143.98 117.172 143.664C116.71 143.98 116.247 144.19 115.784 144.506L114.397 145.348C113.471 145.874 112.546 146.505 111.713 147.031C109.956 148.189 108.198 149.451 106.625 150.925C104.959 152.292 103.387 153.766 101.814 155.239C100.241 156.607 98.7605 158.29 97.2802 159.974Z" fill="#212121"/>
</g>
<g opacity="0.74">
<path opacity="0.74" d="M88.9532 158.08C88.6757 155.029 88.9532 151.872 89.6009 148.821C90.2486 145.769 91.3588 142.823 92.9317 140.297C92.0065 143.244 91.1738 146.085 90.5261 149.031C89.7859 152.082 89.3233 155.029 88.9532 158.08Z" fill="#212121"/>
</g>
</g>
</svg>
